<svg width="1209" height="126" viewBox="0 0 1209 126" fill="none" xmlns="http://www.w3.org/2000/svg">
<path opacity="0.2" d="M-4.72069e-05 70.1264H82.4716L98.4913 90.4368L126.971 46.6092L151.89 70.1264H221.309L254.535 16.6782L314.46 125L342.94 70.1264H389.812L411.386 47.6782L432.531 70.1264H552.382L577.302 125L617.054 1L644.94 70.1264H732.752L757.671 125L786.151 70.1264H865.062L885.979 44.1149L920.619 89.7241L960.258 8.83908L990.254 70.1264H1021.32L1039.53 44.1149L1056.68 70.1264H1075.25L1091.67 109.322L1110.96 52.3103L1117.74 70.1264H1143.1L1156.67 8.83908L1170.24 109.322L1179.16 70.1264H1210.95L1218.8 51.2414L1233.8 89.7241L1246.66 70.1264H1299.15L1304.86 34.8506L1317.01 89.7241L1324.86 67.9885H1377" stroke="url(#paint0_linear_219_1156)" stroke-width="2" stroke-linejoin="round"/>
<defs>
<linearGradient id="paint0_linear_219_1156" x1="-155.5" y1="63.0006" x2="1530" y2="63.0006" gradientUnits="userSpaceOnUse">
<stop stop-color="#2B7899" stop-opacity="0"/>
<stop offset="0.223958" stop-color="#2B7899" stop-opacity="0.8"/>
<stop offset="0.505208" stop-color="#2B7899"/>
<stop offset="0.776042" stop-color="#2B7899" stop-opacity="0.8"/>
<stop offset="1" stop-color="#2B7899" stop-opacity="0"/>
</linearGradient>
</defs>
</svg>
