<svg width="52" height="51" viewBox="0 0 52 51" fill="none" xmlns="http://www.w3.org/2000/svg">
<path d="M17.4365 8.35426C17.4365 3.74033 21.1769 0 25.7908 0V0C30.4047 0 34.145 3.74033 34.145 8.35426V16.6666H17.4365V8.35426Z" fill="#2B7899"/>
<path d="M9.06134 33.3333C4.45898 33.3333 0.728027 29.6024 0.728027 25V25C0.728027 20.3976 4.45898 16.6667 9.06134 16.6667L17.4365 16.6667L17.4365 33.3333L9.06134 33.3333Z" fill="#2B7899"/>
<ellipse cx="22.4492" cy="21.6667" rx="2.08857" ry="2.08333" stroke="#7FC3D6"/>
<ellipse cx="22.4492" cy="35.8333" rx="2.08857" ry="2.08333" stroke="#7FC3D6"/>
<ellipse cx="36.6513" cy="21.6667" rx="2.08857" ry="2.08333" stroke="#7FC3D6"/>
<ellipse cx="22.4492" cy="28.7498" rx="2.08857" ry="2.08333" stroke="#7FC3D6"/>
<ellipse cx="22.4492" cy="42.9166" rx="2.08857" ry="2.08333" stroke="#B4E2F0"/>
<ellipse cx="36.6513" cy="29.1667" rx="2.08857" ry="2.08333" stroke="#B4E2F0"/>
<ellipse cx="29.5502" cy="21.6667" rx="2.08857" ry="2.08333" stroke="#7FC3D6"/>
<ellipse cx="29.5502" cy="35.8333" rx="2.08857" ry="2.08333" stroke="#B4E2F0"/>
<ellipse cx="43.7526" cy="21.6667" rx="2.08857" ry="2.08333" stroke="#B4E2F0"/>
<ellipse cx="29.5502" cy="28.7498" rx="2.08857" ry="2.08333" stroke="#7FC3D6"/>
<ellipse cx="29.5502" cy="42.9166" rx="2.08857" ry="2.08333" stroke="#B4E2F0"/>
<ellipse cx="43.7526" cy="29.1667" rx="2.08857" ry="2.08333" stroke="#B4E2F0"/>
<path d="M48.7651 22.9167L48.7651 22.4167L48.2651 22.4167L48.2651 22.9167L48.7651 22.9167ZM48.7651 27.0834L48.2651 27.0834L48.2651 27.5834L48.7651 27.5834L48.7651 27.0834ZM48.7651 23.4167C49.6437 23.4167 50.3537 24.1268 50.3537 25L51.3537 25C51.3537 23.5721 50.1936 22.4167 48.7651 22.4167L48.7651 23.4167ZM48.2651 22.9167L48.2651 27.0834L49.2651 27.0834L49.2651 22.9167L48.2651 22.9167ZM50.3537 25C50.3537 25.8733 49.6437 26.5834 48.7651 26.5834L48.7651 27.5834C50.1936 27.5834 51.3537 26.428 51.3537 25L50.3537 25Z" fill="#B4E2F0"/>
<path d="M27.8793 47.9166H28.3793V47.4166H27.8793V47.9166ZM23.7021 47.9166V47.4166H23.2021V47.9166H23.7021ZM27.3793 47.9166C27.3793 48.7899 26.6692 49.5 25.7907 49.5V50.5C27.2192 50.5 28.3793 49.3445 28.3793 47.9166H27.3793ZM27.8793 47.4166H23.7021V48.4166H27.8793V47.4166ZM25.7907 49.5C24.9122 49.5 24.2021 48.7899 24.2021 47.9166H23.2021C23.2021 49.3445 24.3623 50.5 25.7907 50.5V49.5Z" fill="#B4E2F0"/>
</svg>
