<svg width="227" height="51" viewBox="0 0 227 51" fill="none" xmlns="http://www.w3.org/2000/svg">
<path d="M121.437 8.35426C121.437 3.74033 125.177 0 129.791 0V0C134.405 0 138.145 3.74033 138.145 8.35426V16.6666H121.437V8.35426Z" fill="#FFFFFF"/>
<path d="M113.061 33.3333C108.459 33.3333 104.728 29.6024 104.728 25V25C104.728 20.3976 108.459 16.6667 113.061 16.6667L121.437 16.6667L121.437 33.3333L113.061 33.3333Z" fill="#FFFFFF"/>
<ellipse cx="126.449" cy="21.6667" rx="2.08857" ry="2.08333" stroke="#FFFFFF"/>
<ellipse cx="126.449" cy="35.8333" rx="2.08857" ry="2.08333" stroke="#FFFFFF"/>
<ellipse cx="140.651" cy="21.6667" rx="2.08857" ry="2.08333" stroke="#FFFFFF"/>
<ellipse cx="126.449" cy="28.7498" rx="2.08857" ry="2.08333" stroke="#FFFFFF"/>
<ellipse cx="126.449" cy="42.9166" rx="2.08857" ry="2.08333" stroke="#FFFFFF"/>
<ellipse cx="140.651" cy="29.1667" rx="2.08857" ry="2.08333" stroke="#FFFFFF"/>
<ellipse cx="133.55" cy="21.6667" rx="2.08857" ry="2.08333" stroke="#FFFFFF"/>
<ellipse cx="133.55" cy="35.8333" rx="2.08857" ry="2.08333" stroke="#FFFFFF"/>
<ellipse cx="147.753" cy="21.6667" rx="2.08857" ry="2.08333" stroke="#FFFFFF"/>
<ellipse cx="133.55" cy="28.7498" rx="2.08857" ry="2.08333" stroke="#FFFFFF"/>
<ellipse cx="133.55" cy="42.9166" rx="2.08857" ry="2.08333" stroke="#FFFFFF"/>
<ellipse cx="147.753" cy="29.1667" rx="2.08857" ry="2.08333" stroke="#FFFFFF"/>
<path d="M152.765 22.9167L152.765 22.4167L152.265 22.4167L152.265 22.9167L152.765 22.9167ZM152.765 27.0834L152.265 27.0834L152.265 27.5834L152.765 27.5834L152.765 27.0834ZM152.765 23.4167C153.644 23.4167 154.354 24.1268 154.354 25L155.354 25C155.354 23.5721 154.194 22.4167 152.765 22.4167L152.765 23.4167ZM152.265 22.9167L152.265 27.0834L153.265 27.0834L153.265 22.9167L152.265 22.9167ZM154.354 25C154.354 25.8733 153.644 26.5834 152.765 26.5834L152.765 27.5834C154.194 27.5834 155.354 26.428 155.354 25L154.354 25Z" fill="#FFFFFF"/>
<path d="M131.879 47.9166H132.379V47.4166H131.879V47.9166ZM127.702 47.9166V47.4166H127.202V47.9166H127.702ZM131.379 47.9166C131.379 48.7899 130.669 49.5 129.791 49.5V50.5C131.219 50.5 132.379 49.3445 132.379 47.9166H131.379ZM131.879 47.4166H127.702V48.4166H131.879V47.4166ZM129.791 49.5C128.912 49.5 128.202 48.7899 128.202 47.9166H127.202C127.202 49.3445 128.362 50.5 129.791 50.5V49.5Z" fill="#FFFFFF"/>
<path d="M0.0908203 43.7499V6.25H5.16954L19.0047 24.037L32.6063 6.25H37.685V43.7499H33.3068V12.7077L19.0047 30.5513L4.46902 12.7077V43.7499H0.0908203Z" fill="#FFFFFF"/>
<path d="M51.7095 43.7499C49.2774 43.7499 47.1492 43.2008 45.3251 42.1026C43.501 40.9721 42.0769 39.454 41.0528 37.5483C40.0607 35.6427 39.5647 33.5432 39.5647 31.2499C39.5647 28.9243 40.0447 26.8249 41.0048 24.9515C41.9649 23.0458 43.341 21.5439 45.1331 20.4457C46.9252 19.3152 49.0373 18.7499 51.4695 18.7499C53.9337 18.7499 56.0458 19.3152 57.806 20.4457C59.5981 21.5439 60.9742 23.0458 61.9342 24.9515C62.8943 26.8249 63.3743 28.9243 63.3743 31.2499V32.7034H43.261C43.453 34.1246 43.901 35.4327 44.605 36.6278C45.3411 37.7906 46.3172 38.7273 47.5332 39.4379C48.7493 40.1162 50.1574 40.4553 51.7575 40.4553C53.4537 40.4553 54.8778 40.0839 56.0298 39.341C57.1819 38.5658 58.078 37.5806 58.718 36.3856H62.6543C61.8222 38.5496 60.4941 40.3261 58.67 41.715C56.8779 43.0716 54.5577 43.7499 51.7095 43.7499ZM43.309 29.3119H59.6301C59.3101 27.2448 58.446 25.5167 57.0379 24.1278C55.6298 22.7389 53.7737 22.0445 51.4695 22.0445C49.1654 22.0445 47.3092 22.7389 45.9011 24.1278C44.525 25.5167 43.661 27.2448 43.309 29.3119Z" fill="#FFFFFF"/>
<path d="M92.1965 10.3125V6.25H96.5825V10.3125H92.1965ZM92.359 43.7499V16.403H96.4201V43.7499H92.359Z" fill="#FFFFFF"/>
<path fill-rule="evenodd" clip-rule="evenodd" d="M90.3169 6.25H85.9309V21.7505C83.7404 19.8798 80.8953 18.75 77.7855 18.75C70.8646 18.75 65.2542 24.3464 65.2542 31.2499C65.2542 38.1535 70.8646 43.7499 77.7855 43.7499C80.8953 43.7499 83.7404 42.62 85.9309 40.7494V43.7499H90.3169V6.25ZM85.9309 31.2499C85.9309 26.7626 82.2841 23.125 77.7855 23.125C73.287 23.125 69.6401 26.7626 69.6401 31.2499C69.6401 35.7372 73.287 39.3749 77.7855 39.3749C82.2841 39.3749 85.9309 35.7372 85.9309 31.2499Z" fill="#FFFFFF"/>
<path d="M208.626 24.3407L222.077 6.75H226.409V43.2499H223.031V12.7077V11.2844L222.141 12.395L208.226 29.7558L194.081 12.3919L193.193 11.3022V12.7077V43.2499H189.815V6.75H194.149L207.834 24.344L208.232 24.8557L208.626 24.3407Z" stroke="#FFFFFF"/>
<path d="M167.088 39.7403H186.935V42.9374H163.499V7.06244H166.588V39.2403V39.7403H167.088Z" stroke="#FFFFFF"/>
</svg>
